<svg id="svg" version="1.1" xmlns="http://www.w3.org/2000/svg" xmlns:xlink="http://www.w3.org/1999/xlink" width="400" height="400" viewBox="0, 0, 400,400"><g id="svgg"><path id="path0" d="M162.031 133.128 C 141.615 136.204,130.687 148.373,129.027 169.882 C 127.750 186.432,132.731 199.990,143.048 208.050 C 155.943 218.123,180.465 218.227,196.429 208.277 L 198.750 206.831 198.750 189.506 L 198.750 172.181 184.453 172.262 L 170.156 172.344 170.070 176.797 L 169.983 181.250 178.898 181.250 L 187.813 181.250 187.813 191.844 L 187.813 202.438 186.654 203.122 C 177.951 208.257,160.145 207.557,151.598 201.744 C 138.139 192.589,136.347 161.714,148.553 149.284 C 158.914 138.733,180.937 139.567,195.085 151.047 L 196.576 152.257 196.491 146.210 L 196.406 140.163 192.995 138.395 C 184.585 134.036,171.162 131.752,162.031 133.128 M203.125 138.750 L 203.125 143.438 217.344 143.438 L 231.563 143.438 231.563 178.750 L 231.563 214.063 237.031 214.063 L 242.500 214.063 242.500 178.750 L 242.500 143.438 256.719 143.438 L 270.938 143.438 270.938 138.750 L 270.938 134.063 237.031 134.063 L 203.125 134.063 203.125 138.750 M269.548 327.266 C 268.952 329.197,269.003 329.375,270.150 329.375 C 270.988 329.375,271.251 329.245,271.254 328.828 C 271.257 328.527,271.343 327.965,271.447 327.578 C 271.659 326.787,269.790 326.479,269.548 327.266 M159.063 327.943 C 159.063 328.187,158.977 328.609,158.873 328.881 C 158.710 329.305,159.021 329.375,161.060 329.375 C 162.795 329.375,163.438 329.484,163.438 329.779 C 163.438 330.166,161.753 339.093,161.406 340.547 C 161.257 341.173,161.357 341.250,162.317 341.250 C 163.598 341.250,163.414 341.745,164.732 334.766 L 165.749 329.375 168.187 329.375 C 169.528 329.375,170.627 329.270,170.629 329.141 C 170.632 329.012,170.718 328.590,170.822 328.203 L 171.010 327.500 165.036 327.500 C 160.088 327.500,159.063 327.576,159.063 327.943 M243.287 328.594 C 242.742 331.220,242.992 330.989,240.942 330.757 C 239.404 330.583,238.878 330.658,237.841 331.199 C 236.848 331.716,236.630 331.751,236.776 331.371 C 236.922 330.988,236.747 330.912,235.905 330.993 L 234.850 331.094 233.882 336.172 L 232.914 341.250 233.903 341.250 C 234.878 341.250,234.897 341.220,235.274 339.141 C 236.188 334.097,237.214 332.500,239.542 332.500 C 240.696 332.500,240.914 332.397,241.029 331.797 L 241.165 331.094 241.207 331.797 C 241.237 332.277,241.448 332.500,241.875 332.500 C 242.219 332.500,242.500 332.535,242.499 332.578 C 242.498 332.621,242.234 334.015,241.912 335.676 C 241.256 339.055,241.336 340.118,242.295 340.790 C 243.013 341.293,246.250 341.435,246.250 340.963 C 246.250 340.805,246.335 340.454,246.440 340.182 C 246.596 339.775,246.373 339.688,245.180 339.688 C 243.293 339.688,243.210 339.419,243.912 335.592 L 244.480 332.500 246.113 332.500 C 247.313 332.500,247.796 332.369,247.935 332.006 C 248.296 331.065,248.118 330.938,246.439 330.938 L 244.753 330.938 245.025 329.766 C 245.443 327.966,245.393 327.813,244.381 327.813 C 243.639 327.813,243.416 327.971,243.287 328.594 M261.985 329.293 C 261.782 330.403,261.558 330.803,261.091 330.892 C 259.955 331.107,259.551 332.500,260.625 332.500 C 261.370 332.500,261.388 332.867,260.781 335.625 C 259.789 340.137,260.352 341.345,263.375 341.187 C 265.660 341.067,266.380 339.692,264.162 339.683 C 262.034 339.674,261.979 339.532,262.673 335.880 L 263.286 332.656 265.081 332.563 C 267.698 332.426,267.883 330.938,265.283 330.938 L 263.691 330.938 263.906 329.375 L 264.121 327.813 263.188 327.813 C 262.322 327.813,262.236 327.918,261.985 329.293 M173.660 331.216 C 172.744 331.683,172.500 331.716,172.500 331.373 C 172.500 331.102,172.162 330.938,171.607 330.938 L 170.715 330.938 169.732 335.859 C 168.548 341.789,168.553 341.250,169.682 341.250 C 170.705 341.250,170.611 341.451,171.405 337.566 C 172.186 333.754,172.930 332.780,175.270 332.510 C 176.569 332.361,176.729 332.255,176.818 331.484 C 176.942 330.404,175.495 330.281,173.660 331.216 M179.688 331.033 C 178.793 331.338,177.760 333.147,178.495 333.122 C 178.549 333.120,179.279 332.910,180.116 332.656 C 182.329 331.985,184.375 332.684,184.375 334.111 C 184.375 334.615,184.107 334.688,182.254 334.688 C 178.616 334.688,176.578 336.156,176.567 338.786 C 176.557 341.253,179.635 342.450,182.109 340.941 C 182.938 340.436,183.125 340.407,183.125 340.786 C 183.125 341.089,183.437 341.250,184.027 341.250 L 184.928 341.250 185.644 337.534 C 186.819 331.434,184.841 329.276,179.688 331.033 M192.743 331.267 C 191.815 331.757,191.616 331.786,191.761 331.409 C 191.900 331.046,191.700 330.938,190.893 330.939 L 189.844 330.940 188.940 335.704 C 188.444 338.325,187.972 340.645,187.891 340.859 C 187.792 341.125,188.092 341.250,188.823 341.250 L 189.900 341.250 190.304 338.984 C 191.221 333.836,192.070 332.500,194.425 332.500 C 196.194 332.500,196.324 333.130,195.477 337.579 L 194.778 341.250 195.775 341.250 L 196.771 341.250 197.482 337.374 C 198.607 331.243,196.915 329.064,192.743 331.267 M202.969 331.044 C 199.812 332.503,199.987 335.775,203.273 336.730 C 205.496 337.376,206.196 337.920,205.750 338.654 C 204.878 340.090,202.742 340.316,200.247 339.237 C 199.619 338.965,199.078 340.453,199.612 340.987 C 200.032 341.407,203.401 341.698,204.801 341.435 C 208.618 340.719,208.889 336.285,205.172 335.349 C 204.436 335.164,203.530 334.763,203.158 334.459 C 201.534 333.133,204.545 331.711,207.108 332.594 C 208.436 333.051,209.379 332.067,208.477 331.165 C 207.959 330.646,204.016 330.559,202.969 331.044 M214.453 331.228 C 213.633 331.743,213.438 331.777,213.438 331.402 C 213.438 331.097,213.124 330.938,212.526 330.938 C 211.479 330.938,211.645 330.404,210.003 339.063 C 209.465 341.898,208.951 344.475,208.860 344.788 C 208.719 345.269,208.853 345.341,209.731 345.256 C 210.757 345.157,210.771 345.134,211.243 342.759 L 211.719 340.361 212.456 340.962 C 215.861 343.734,220.974 338.449,219.926 333.242 C 219.447 330.863,216.665 329.839,214.453 331.228 M225.108 331.268 C 222.484 332.567,220.946 336.420,221.975 339.114 C 223.542 343.218,229.933 341.948,231.231 337.274 C 232.615 332.292,229.404 329.142,225.108 331.268 M251.332 330.974 C 250.636 331.175,250.259 331.512,250.123 332.054 C 249.853 333.128,249.963 333.169,251.703 332.645 C 254.100 331.924,255.938 332.618,255.938 334.244 C 255.938 334.583,255.439 334.688,253.816 334.688 C 250.178 334.688,248.140 336.156,248.130 338.786 C 248.120 341.253,251.197 342.450,253.672 340.941 C 254.501 340.436,254.688 340.407,254.688 340.786 C 254.688 341.089,255.000 341.250,255.589 341.250 L 256.491 341.250 257.207 337.534 C 258.379 331.447,256.595 329.454,251.332 330.974 M275.947 331.120 C 273.803 332.050,272.565 333.937,272.279 336.708 C 271.654 342.756,279.618 343.454,281.707 337.534 C 283.388 332.769,280.236 329.259,275.947 331.120 M288.312 331.273 C 287.327 331.802,287.138 331.830,287.292 331.430 C 287.440 331.043,287.260 330.938,286.456 330.938 L 285.432 330.938 284.549 335.703 C 284.064 338.324,283.600 340.645,283.519 340.859 C 283.418 341.125,283.716 341.250,284.452 341.250 L 285.533 341.250 285.900 338.984 C 286.664 334.272,287.735 332.495,289.808 332.505 C 292.019 332.516,292.105 333.564,290.466 340.547 C 290.320 341.169,290.421 341.250,291.345 341.250 L 292.390 341.250 293.090 337.479 C 294.231 331.337,292.467 329.046,288.312 331.273 M298.594 331.044 C 295.408 332.517,295.582 335.766,298.898 336.730 C 301.121 337.376,301.821 337.920,301.375 338.654 C 300.503 340.090,298.367 340.316,295.872 339.237 C 295.244 338.965,294.703 340.453,295.237 340.987 C 296.334 342.084,301.152 341.612,302.488 340.277 C 304.440 338.325,303.571 336.019,300.617 335.310 C 298.641 334.837,297.958 334.127,298.598 333.213 C 299.224 332.320,301.114 332.036,302.728 332.592 C 304.023 333.038,304.937 332.036,304.061 331.132 C 303.583 330.639,299.607 330.575,298.594 331.044 M268.750 331.042 C 268.750 331.100,268.329 333.315,267.815 335.964 C 267.301 338.614,266.879 340.887,266.877 341.016 C 266.872 341.530,268.710 341.242,268.870 340.703 C 269.109 339.902,270.625 331.808,270.625 331.338 C 270.625 331.101,270.241 330.938,269.688 330.938 C 269.172 330.938,268.750 330.985,268.750 331.042 M217.578 333.187 C 219.172 335.030,216.918 340.000,214.489 340.000 C 212.146 340.000,211.730 335.771,213.849 333.481 C 215.149 332.077,216.525 331.968,217.578 333.187 M229.328 333.565 C 230.207 335.375,228.962 338.730,227.075 339.637 C 224.547 340.853,222.837 338.061,224.178 334.912 C 225.305 332.267,228.315 331.480,229.328 333.565 M280.002 333.912 C 280.952 336.792,278.463 340.398,275.912 339.838 C 273.059 339.211,274.192 333.385,277.344 332.476 C 278.464 332.153,279.629 332.782,280.002 333.912 M183.605 337.109 C 182.996 339.573,179.715 340.866,178.732 339.030 C 177.928 337.527,179.529 336.285,182.300 336.262 C 183.801 336.250,183.815 336.260,183.605 337.109 M255.247 337.109 C 254.124 339.755,251.274 340.860,250.295 339.030 C 249.477 337.501,251.096 336.284,253.978 336.262 L 255.612 336.250 255.247 337.109 " stroke="none" fill="#048c64" fill-rule="evenodd"></path><path id="path1" d="M190.313 47.690 C 128.878 52.970,82.528 97.173,73.857 158.750 C 73.150 163.770,73.041 183.730,73.694 188.438 C 79.635 231.230,101.708 264.506,137.656 284.861 C 165.299 300.514,199.608 305.107,230.735 297.321 C 279.327 285.166,316.619 244.987,324.832 195.938 C 327.733 178.613,327.000 159.373,322.814 142.969 C 309.775 91.863,268.377 55.437,215.156 48.239 C 211.878 47.796,193.744 47.395,190.313 47.690 M206.563 51.085 C 268.797 53.392,320.668 105.844,323.078 168.906 C 326.773 265.596,223.764 329.007,139.531 281.895 C 61.508 238.256,54.601 128.807,126.472 74.958 C 146.948 59.616,178.829 49.264,200.781 50.827 C 201.469 50.876,204.070 50.992,206.563 51.085 M101.128 327.629 C 95.961 329.552,93.943 337.792,97.915 340.749 C 99.171 341.684,103.940 341.704,105.774 340.781 C 106.965 340.183,108.004 337.369,108.111 334.453 C 108.134 333.815,103.249 333.915,103.002 334.557 C 102.647 335.483,102.813 335.625,104.254 335.625 L 105.696 335.625 105.480 337.109 C 104.929 340.895,98.769 340.956,98.015 337.184 C 96.934 331.780,102.347 327.285,106.842 329.855 C 108.407 330.750,108.300 330.770,108.568 329.516 C 108.945 327.756,104.094 326.525,101.128 327.629 M114.929 331.244 C 113.984 331.751,113.808 331.775,113.961 331.377 C 114.110 330.987,113.942 330.911,113.101 330.993 L 112.056 331.094 111.242 335.156 C 110.795 337.391,110.336 339.676,110.222 340.234 C 110.022 341.219,110.048 341.250,111.062 341.250 C 112.051 341.250,112.119 341.178,112.319 339.922 C 113.222 334.245,114.265 332.500,116.756 332.500 C 117.729 332.500,118.125 332.372,118.125 332.057 C 118.125 331.813,118.210 331.391,118.315 331.119 C 118.597 330.384,116.381 330.466,114.929 331.244 M122.031 331.001 C 118.604 332.196,116.783 337.863,119.021 340.368 C 120.632 342.171,126.294 341.954,126.655 340.076 C 126.863 338.996,127.032 339.040,124.839 339.613 C 121.951 340.368,120.000 339.516,120.000 337.500 L 120.000 336.563 123.873 336.563 C 128.104 336.563,128.125 336.553,128.125 334.631 C 128.125 331.600,125.241 329.882,122.031 331.001 M133.626 330.933 C 129.538 332.231,128.117 339.381,131.593 341.167 C 133.529 342.162,137.957 341.431,138.218 340.073 C 138.435 338.946,138.416 338.939,136.737 339.509 C 133.648 340.558,131.563 339.675,131.563 337.318 L 131.563 336.563 135.455 336.563 L 139.347 336.563 139.548 335.489 C 140.167 332.187,137.103 329.829,133.626 330.933 M145.859 331.196 C 144.943 331.674,144.688 331.713,144.688 331.373 C 144.688 331.097,144.343 330.938,143.750 330.938 C 143.234 330.938,142.812 330.973,142.811 331.016 C 142.811 331.059,142.392 333.203,141.880 335.781 C 140.736 341.548,140.736 341.250,141.875 341.250 C 142.391 341.250,142.813 341.195,142.813 341.128 C 142.813 341.061,143.093 339.643,143.436 337.976 C 144.345 333.561,145.261 332.335,147.492 332.554 C 149.371 332.739,149.383 332.974,147.906 340.391 C 147.748 341.180,147.813 341.250,148.705 341.250 C 149.459 341.250,149.709 341.093,149.825 340.547 C 151.104 334.538,151.222 332.608,150.378 331.566 C 149.576 330.575,147.392 330.396,145.859 331.196 M125.894 333.624 C 126.489 334.928,126.360 335.000,123.438 335.000 C 120.427 335.000,120.275 334.904,121.270 333.640 C 122.519 332.052,125.174 332.043,125.894 333.624 M137.477 333.819 C 137.662 334.348,137.813 334.830,137.813 334.890 C 137.813 334.951,136.547 335.000,135.000 335.000 C 131.990 335.000,131.837 334.904,132.832 333.640 C 134.164 331.947,136.861 332.051,137.477 333.819 " stroke="none" fill="#040404" fill-rule="evenodd"></path><path id="path2" d="" stroke="none" fill="#046868" fill-rule="evenodd"></path><path id="path3" d="" stroke="none" fill="#046868" fill-rule="evenodd"></path><path id="path4" d="" stroke="none" fill="#046868" fill-rule="evenodd"></path></g></svg>